<svg xmlns="http://www.w3.org/2000/svg" width="125" height="125" viewBox="0 0 125 125" fill="none"><rect x="3" y="3" width="119" height="119" rx="59.5" fill="#597800" stroke="#BDFF00" stroke-width="6"></rect><path d="M81.1412 52.7265L69.4061 51.2195C70.3921 48.8102 71.5348 44.9865 71.5348 40.2075C71.5348 37.5282 70.694 35.553 69.0357 34.3374C67.9215 33.5208 66.4892 33.1064 64.7791 33.1064H64.6944L64.6106 33.1162C61.8009 33.4366 60.955 36.1224 61.0685 37.8722C61.0828 38.3229 61.0361 38.7648 60.93 39.1853C60.6167 40.4252 60.0983 41.4587 58.846 43.9559L58.7875 44.072C57.951 45.7424 56.9899 46.3425 55.6601 47.1733C54.5273 47.8811 53.2433 48.6827 51.8581 50.2326C51.2314 50.9322 50.5097 51.9552 49.8687 53.0523C49.7524 53.2109 49.6538 53.3902 49.5707 53.5917C49.5605 53.6123 49.5494 53.6309 49.5387 53.6495C49.5082 53.7042 49.4675 53.7766 49.4243 53.864C49.3602 53.985 49.289 54.1202 49.2158 54.2634C48.013 55.3313 46.1537 55.3111 45.0237 55.2981C44.9074 55.2969 44.8001 55.2957 44.7032 55.2957C42.7221 55.2957 41.5501 56.0905 40.9163 56.7573C40.0339 57.6844 39.5678 58.9951 39.5678 60.5474L39.567 77.455C39.567 78.5687 39.7055 80.1768 40.904 81.286C42.0229 82.3219 43.6084 82.4417 44.7032 82.4417H48.3192C49.2067 82.4417 50.0622 82.8314 51.1459 83.3251C51.758 83.6039 52.452 83.9199 53.2461 84.2052C56.9737 85.526 61.9346 86.1411 68.8577 86.1411C70.1994 86.1411 74.361 86.1464 74.363 86.1464C75.8638 86.1464 77.2763 85.5438 78.4471 84.4043C79.0675 83.8013 79.4446 83.043 79.5993 82.0864C79.6333 81.8747 79.6559 81.4288 79.6583 81.1872C79.682 80.581 79.595 80.0044 79.4082 79.4747C80.6107 79.3359 81.745 78.805 82.6123 77.9576C83.6763 76.9176 84.2623 75.473 84.2623 73.8891C84.2623 72.7282 83.9026 71.6315 83.2367 70.7307C83.63 70.5325 84.0027 70.2759 84.3351 69.9453C85.1969 69.0882 85.6424 67.9001 85.6606 66.4134C85.716 64.9303 85.2111 63.6407 84.2615 62.6877C85.2661 61.6627 85.9261 60.1945 85.9945 58.5666C86.1239 55.4964 83.9525 52.8924 81.1412 52.7265V52.7265Z" fill="#E7FFA1"></path></svg>