<svg xmlns="http://www.w3.org/2000/svg" width="125" height="125" viewBox="0 0 125 125" fill="none"><rect x="3" y="3" width="119" height="119" rx="59.5" fill="#727272" stroke="#F3F3F3" stroke-width="6"></rect><path d="M78.6201 48.0623C80.5692 48.0623 82.1493 46.4463 82.1493 44.4528C82.1493 42.4594 80.5692 40.8434 78.6201 40.8434C76.6709 40.8434 75.0908 42.4594 75.0908 44.4528C75.0908 46.4463 76.6709 48.0623 78.6201 48.0623Z" fill="white"></path><path d="M69.2087 40.8434C71.1578 40.8434 72.7379 39.2274 72.7379 37.234C72.7379 35.2405 71.1578 33.6245 69.2087 33.6245C67.2595 33.6245 65.6794 35.2405 65.6794 37.234C65.6794 39.2274 67.2595 40.8434 69.2087 40.8434Z" fill="white"></path><path d="M59.7974 38.4369C61.7466 38.4369 63.3267 36.8209 63.3267 34.8275C63.3267 32.834 61.7466 31.218 59.7974 31.218C57.8483 31.218 56.2682 32.834 56.2682 34.8275C56.2682 36.8209 57.8483 38.4369 59.7974 38.4369Z" fill="white"></path><path d="M50.3863 43.2495C52.3354 43.2495 53.9155 41.6335 53.9155 39.6401C53.9155 37.6466 52.3354 36.0306 50.3863 36.0306C48.4371 36.0306 46.8571 37.6466 46.8571 39.6401C46.8571 41.6335 48.4371 43.2495 50.3863 43.2495Z" fill="white"></path><path d="M75.0908 44.4527V60.0937C75.0908 60.7578 74.5638 61.2968 73.9144 61.2968C73.265 61.2968 72.738 60.7578 72.738 60.0937V37.2338H65.6795V57.6874C65.6795 58.3515 65.1525 58.8905 64.5031 58.8905C63.8537 58.8905 63.3267 58.3515 63.3267 57.6874V34.8275H56.2682V57.6874C56.2682 58.3515 55.7411 58.8905 55.0918 58.8905C54.4424 58.8905 53.9154 58.3515 53.9154 57.6874V39.6401H46.8569V69.7189L42.0924 63.051C40.6807 60.8252 37.9255 60.0792 35.9068 61.3546C33.8952 62.6588 33.3964 65.503 34.7892 67.7216C34.7892 67.7216 42.4736 79.616 45.7487 84.7077C49.0238 89.7994 54.3295 93.7818 64.2513 93.7818C80.6788 93.7818 82.1493 80.8071 82.1493 76.9378C82.1493 73.0684 82.1493 44.4527 82.1493 44.4527H75.0908Z" fill="white"></path></svg>