<svg xmlns="http://www.w3.org/2000/svg" width="125" height="125" viewBox="0 0 125 125" fill="none"><rect x="3.02504" y="3.02504" width="118.95" height="118.95" rx="59.475" fill="#007830" stroke="#48FF91" stroke-width="6.05008"></rect><path fill-rule="evenodd" clip-rule="evenodd" d="M61.4797 30.4828C60.1333 30.5323 58.808 30.6644 57.5087 30.8743C57.3362 31.3115 57.1673 31.7548 57.0021 32.2041C58.1176 31.9086 59.25 31.7589 60.3871 31.7589V34.473C58.8864 34.473 57.3948 34.7587 55.9456 35.3198C55.3276 37.2998 54.7766 39.3747 54.2974 41.5289C56.6395 41.1284 59.05 40.9064 61.4797 40.8694V30.4828ZM61.4797 42.6261C58.9046 42.6691 56.3537 42.9398 53.8975 43.4291C53.8749 43.5426 53.8526 43.6562 53.8304 43.7701C53.39 46.0333 53.0301 48.3577 52.7526 50.7237C55.6287 50.4846 58.5471 50.3545 61.4797 50.336V42.6261ZM63.665 50.3429V42.6443C66.2585 42.731 68.8206 43.0487 71.2788 43.5881L71.3145 43.7702C71.7588 46.0537 72.1212 48.3994 72.3997 50.7873C69.5236 50.529 66.6026 50.3799 63.665 50.3429ZM61.4797 52.5713C58.4609 52.5922 55.4588 52.7427 52.5104 53.0194C52.2337 55.9678 52.0832 58.9699 52.0623 61.9887H61.4797V52.5713ZM63.665 61.9887V52.5789C66.6893 52.6207 69.6937 52.7926 72.6412 53.0911C72.9136 56.0165 73.0618 58.9944 73.0825 61.9887H63.665ZM61.4797 64.174H52.0699C52.1117 67.1983 52.2836 70.2027 52.5821 73.1502C55.5075 73.4226 58.4854 73.5708 61.4797 73.5915V64.174ZM63.665 73.584V64.174H73.075C73.0335 67.1739 72.864 70.1543 72.57 73.0789C69.6453 73.373 66.6649 73.5425 63.665 73.584ZM61.4797 75.8268C58.5774 75.8085 55.689 75.6809 52.8417 75.4465C53.1057 77.5588 53.4357 79.6362 53.8304 81.6643C53.9021 82.033 53.9759 82.3997 54.0518 82.7642C56.4604 83.2343 58.9585 83.4946 61.4797 83.5367V75.8268ZM63.665 83.5185V75.8199C66.5724 75.7833 69.4636 75.6369 72.311 75.3834C72.0457 77.5175 71.7131 79.616 71.3145 81.6644C71.253 81.9805 71.1899 82.295 71.1254 82.608C68.7141 83.1272 66.2046 83.4336 63.665 83.5185ZM61.4797 85.2934C59.1095 85.2573 56.7576 85.0452 54.4696 84.663C54.9073 86.5473 55.4005 88.3683 55.9459 90.1155C57.395 90.6766 58.8865 90.9622 60.3871 90.9622V93.6763C59.2501 93.6763 58.1178 93.5267 57.0024 93.2311C57.1567 93.6508 57.3143 94.0653 57.475 94.4745C58.785 94.6875 60.1216 94.8215 61.4797 94.8714V85.2934ZM63.665 94.8789V85.2767C66.051 85.204 68.4137 84.9529 70.7062 84.5295C70.2608 86.4611 69.7573 88.3269 69.1991 90.1152C67.75 90.6763 66.2585 90.9619 64.7578 90.9619V93.676C65.8949 93.676 67.0271 93.5264 68.1426 93.2308C67.9835 93.6636 67.8209 94.0908 67.655 94.5124C66.3493 94.7146 65.0176 94.8384 63.665 94.8789ZM63.665 40.8861V30.4753C65.006 30.5154 66.3263 30.6375 67.6213 30.8366C67.7989 31.2859 67.9727 31.7417 68.1426 32.2038C67.0271 31.9083 65.8949 31.7586 64.7578 31.7586V34.4727C66.2585 34.4727 67.75 34.7583 69.1991 35.3194C69.8302 37.3413 70.3914 39.4621 70.8777 41.6654C68.5316 41.2225 66.1106 40.9606 63.665 40.8861ZM72.2673 36.9672C72.6767 38.5838 73.048 40.2466 73.3794 41.9496C73.3974 42.042 73.4153 42.1344 73.433 42.2269C73.6413 42.2794 73.8488 42.3333 74.0556 42.3887C75.5358 42.7855 76.9627 43.255 78.3244 43.7922C78.1159 43.4352 77.9013 43.0861 77.6808 42.7454C76.1163 40.3274 74.2817 38.3703 72.2673 36.9672ZM74.7209 51.0207C74.4823 48.7194 74.1732 46.4505 73.7949 44.2286C75.9264 44.849 77.9278 45.6374 79.7545 46.5744C80.5045 48.2383 81.138 50.0262 81.6425 51.9086L81.675 52.0305C79.4038 51.6204 77.0804 51.2833 74.7209 51.0207ZM50.2147 53.2616C49.9756 56.1377 49.8455 59.0561 49.827 61.9887H42.1173C42.1603 59.4136 42.431 56.8626 42.9203 54.4064C43.0337 54.3839 43.1473 54.3615 43.2611 54.3394C45.5243 53.899 47.8487 53.5391 50.2147 53.2616ZM49.8339 64.174H42.1355C42.2222 66.7675 42.5398 69.3296 43.0792 71.7878L43.2611 71.8234C45.5446 72.2678 47.8904 72.6302 50.2783 72.9087C50.02 70.0326 49.871 67.1116 49.8339 64.174ZM41.0202 54.8063C40.6196 57.1484 40.3976 59.559 40.3606 61.9887H30.4752C30.5047 60.5807 30.6246 59.1949 30.8292 57.8369C31.1152 57.7268 31.4037 57.6183 31.6946 57.5113C31.3991 58.6267 31.2495 59.7589 31.2495 60.8959H33.9636C33.9636 59.3953 34.2492 57.9039 34.8102 56.4548C36.7905 55.8367 38.8656 55.2856 41.0202 54.8063ZM40.3772 64.174H30.5022C30.5675 65.6024 30.7258 67.0065 30.9713 68.3804C31.2106 68.4719 31.4517 68.5622 31.6946 68.6515C31.3991 67.5361 31.2495 66.4039 31.2495 65.2669H33.9635C33.9635 66.7675 34.2491 68.2589 34.8102 69.708C36.8322 70.3391 38.9531 70.9004 41.1565 71.3867C40.7137 69.0406 40.4517 66.6196 40.3772 64.174ZM74.8745 72.82C75.1279 69.9726 75.2743 67.0814 75.311 64.174H83.0094C82.9245 66.7136 82.6181 69.2231 82.099 71.6344C81.786 71.6989 81.4714 71.7619 81.1553 71.8234C79.107 72.222 77.0085 72.5547 74.8745 72.82ZM84.0204 71.2151C84.4439 68.9227 84.695 66.56 84.7677 64.174H94.8667C94.8077 65.4637 94.6729 66.7336 94.4666 67.9794C93.8956 68.2098 93.3138 68.4339 92.7217 68.6516C93.0172 67.5362 93.1668 66.4039 93.1668 65.2669H90.4527C90.4527 66.7675 90.1671 68.259 89.6061 69.7081C87.8177 70.2663 85.9521 70.7698 84.0204 71.2151ZM84.7843 61.9887H94.8936C94.867 60.7185 94.7668 59.4663 94.5973 58.2364C93.9844 57.9874 93.3591 57.7456 92.7218 57.5113C93.0173 58.6267 93.1669 59.7589 93.1669 60.8959H90.4528C90.4528 59.3953 90.1672 57.9039 89.6062 56.4548C87.859 55.9095 86.0381 55.4163 84.1539 54.9786C84.5361 57.2666 84.7482 59.6185 84.7843 61.9887ZM75.3179 61.9887H83.0276C82.9855 59.4675 82.7252 56.9694 82.2551 54.5608C81.8906 54.4849 81.524 54.4111 81.1553 54.3394C79.1272 53.9447 77.0499 53.6147 74.9375 53.3507C75.1719 56.198 75.2996 59.0864 75.3179 61.9887ZM73.6613 81.9728C74.0588 79.7434 74.3862 77.4644 74.642 75.1509C76.9554 74.8951 79.2344 74.5678 81.4638 74.1703C80.8875 76.1779 80.1627 78.0715 79.3052 79.8141C77.5626 80.6716 75.6689 81.3965 73.6613 81.9728ZM72.2673 88.4674C72.6375 87.0056 72.9766 85.5061 73.2831 83.9733C73.5418 83.9092 73.7993 83.8428 74.0555 83.7741C75.326 83.4336 76.5572 83.0394 77.7416 82.5949L77.6808 82.6893C76.1163 85.1072 74.2817 87.0643 72.2673 88.4674ZM71.2959 91.9806C71.1018 92.626 70.9013 93.2625 70.6945 93.8899C81.9249 91.0164 90.7926 82.2414 93.7982 71.0644C93.0363 71.3207 92.2605 71.5676 91.4715 71.8049C91.2688 72.1846 91.0484 72.5608 90.8102 72.9328C89.2544 75.3632 86.974 77.5715 84.0992 79.4317C83.0611 80.1034 81.9528 80.725 80.7835 81.2924C80.216 82.4618 79.5944 83.5702 78.9226 84.6084C77.0625 87.4832 74.8541 89.7636 72.4237 91.3194C72.0517 91.5575 71.6756 91.778 71.2959 91.9806ZM71.2959 33.454C71.0927 32.7785 70.8825 32.1126 70.6654 31.4569C82.2044 34.3979 91.2539 43.5675 94.0225 55.1743C93.1888 54.8908 92.3381 54.6186 91.4716 54.3579C91.2689 53.9782 91.0485 53.6021 90.8103 53.23C89.2545 50.7996 86.9741 48.5913 84.0993 46.7311C83.1927 46.1445 82.2325 45.5961 81.225 45.0886C80.5433 43.5677 79.7732 42.1407 78.9226 40.8262C77.0625 37.9515 74.8541 35.6711 72.4237 34.1152C72.0517 33.8771 71.6756 33.6566 71.2959 33.454ZM53.849 91.9809C54.0366 92.6044 54.2301 93.2196 54.4295 93.8262C43.43 90.9188 34.7357 82.3399 31.665 71.4078C32.0876 71.543 32.5142 71.6754 32.9448 71.8049C33.1474 72.1846 33.3679 72.5607 33.6061 72.9328C35.1619 75.3632 37.4423 77.5715 40.3171 79.4317C41.6316 80.2823 43.0587 81.0525 44.5797 81.7342C45.0872 82.7418 45.6356 83.702 46.2223 84.6087C48.0825 87.4835 50.2908 89.7638 52.7212 91.3197C53.0932 91.5578 53.4694 91.7783 53.849 91.9809ZM51.8984 84.1555C52.1953 85.6252 52.5221 87.0638 52.8776 88.4677C50.9326 87.113 49.1553 85.2418 47.6268 82.9379C48.5149 83.2447 49.4272 83.5239 50.3608 83.7741C50.8686 83.9102 51.3813 84.0374 51.8984 84.1555ZM51.5215 82.1841C51.1114 79.9128 50.7743 77.5894 50.5117 75.2299C48.2104 74.9913 45.9415 74.6822 43.7197 74.3039C44.3401 76.4355 45.1284 78.437 46.0654 80.2637C47.7293 81.0136 49.5171 81.6471 51.3994 82.1516L51.5215 82.1841ZM50.4322 50.9412C50.6774 48.5933 50.996 46.2792 51.3866 44.0146C49.3336 44.5657 47.3932 45.2702 45.6035 46.1118C44.7617 47.9016 44.057 49.8423 43.5059 51.8955C45.7704 51.505 48.0844 51.1864 50.4322 50.9412ZM51.7654 41.9495C52.0968 40.2467 52.4681 38.5841 52.8774 36.9676C50.8631 38.3707 49.0286 40.3278 47.4641 42.7456C47.3176 42.972 47.1737 43.2021 47.0325 43.4357C48.1065 43.0449 49.2178 42.6951 50.3608 42.3887C50.8192 42.2659 51.2815 42.1503 51.7475 42.0421L51.7654 41.9495ZM54.4584 31.5204C54.2487 32.1557 54.0455 32.8006 53.8488 33.4544C53.4692 33.657 53.0931 33.8774 52.7212 34.1155C50.2908 35.6713 48.0825 37.9517 46.2223 40.8265C45.4568 42.0096 44.7565 43.2837 44.1271 44.6354C42.775 45.2649 41.5005 45.9654 40.3171 46.7311C37.4423 48.5913 35.162 50.7996 33.6061 53.23C33.368 53.6021 33.1475 53.9782 32.9448 54.3579C32.4344 54.5115 31.9295 54.669 31.4303 54.8305C34.2737 43.4686 43.1503 34.498 54.4584 31.5204ZM87.9584 53.3865C86.6037 51.4416 84.7326 49.6643 82.4288 48.1358C82.7356 49.024 83.0148 49.9364 83.265 50.8699C83.4011 51.3777 83.5283 51.8904 83.6464 52.4074C85.116 52.7043 86.5546 53.031 87.9584 53.3865ZM41.5334 52.2564C41.6416 51.7906 41.7571 51.3284 41.8799 50.8702C42.1864 49.7268 42.5363 48.6151 42.9273 47.5407C42.6934 47.6821 42.463 47.8262 42.2363 47.9729C39.8182 49.5375 37.8611 51.3721 36.458 53.3866C38.0746 52.9772 39.7374 52.6058 41.4405 52.2744L41.5334 52.2564ZM42.2362 78.1899C39.8182 76.6253 37.8611 74.7907 36.458 72.7763C38.0746 73.1857 39.7374 73.557 41.4405 73.8884C41.5329 73.9064 41.6254 73.9243 41.718 73.942C41.7705 74.1504 41.8245 74.3581 41.8799 74.565C42.2766 76.0451 42.7461 77.472 43.2833 78.8336C42.9262 78.6251 42.5771 78.4105 42.2362 78.1899ZM83.265 74.5647C83.3337 74.3084 83.4001 74.0508 83.4643 73.7921C84.9971 73.4855 86.4966 73.1465 87.9583 72.7763C86.5552 74.7907 84.5981 76.6253 82.1801 78.1899L82.0859 78.2505C82.5304 77.0662 82.9245 75.8351 83.265 74.5647Z" fill="#7DFFB1"></path><circle cx="62.0042" cy="61.9999" r="31.488" stroke="#7DFFB1" stroke-width="3.024"></circle><circle cx="62.0043" cy="61.9998" r="28.488" stroke="#007830" stroke-width="3.024"></circle></svg>