<svg xmlns="http://www.w3.org/2000/svg" width="300" height="300" viewBox="0 0 300 300" fill="none"><circle cx="150" cy="150" r="150" fill="#0176FF"></circle><path d="M120.511 217C115.503 217 111.646 215.714 108.94 213.143C106.368 210.436 105.083 206.647 105.083 201.775C105.083 196.903 106.368 193.181 108.94 190.61C111.646 188.039 115.503 186.753 120.511 186.753H138.781V103.726H155.833L126.398 121.793C122.879 123.958 119.563 124.838 116.451 124.432C113.338 123.891 110.699 122.537 108.534 120.372C106.368 118.207 104.947 115.568 104.271 112.455C103.594 109.342 103.865 106.23 105.083 103.117C106.301 100.004 108.737 97.3653 112.391 95.2L140.405 77.742C143.382 75.8473 146.427 74.4263 149.54 73.479C152.788 72.5317 156.171 72.058 159.69 72.058C164.832 72.058 168.825 73.4113 171.667 76.118C174.509 78.6893 175.93 82.4787 175.93 87.486V186.753H192.17C197.177 186.753 200.966 188.039 203.538 190.61C206.244 193.181 207.598 196.903 207.598 201.775C207.598 206.647 206.244 210.436 203.538 213.143C200.966 215.714 197.177 217 192.17 217H120.511Z" fill="white"></path></svg>