<svg xmlns="http://www.w3.org/2000/svg" width="300" height="300" viewBox="0 0 300 300" fill="none"><circle cx="150" cy="150" r="150" fill="#21C358"></circle><path d="M117.872 217C111.917 217 107.586 215.647 104.88 212.94C102.308 210.098 101.023 205.97 101.023 200.557C101.023 196.768 101.835 193.384 103.459 190.407C105.218 187.43 107.451 184.52 110.158 181.678L145.683 144.529C150.961 138.845 154.682 133.973 156.848 129.913C159.148 125.853 160.299 121.793 160.299 117.733C160.299 112.59 158.607 108.733 155.224 106.162C151.84 103.591 146.968 102.305 140.608 102.305C137.36 102.305 133.909 102.779 130.255 103.726C126.601 104.538 122.676 106.027 118.481 108.192C114.827 109.816 111.511 110.29 108.534 109.613C105.692 108.936 103.256 107.448 101.226 105.147C99.331 102.846 98.113 100.207 97.5716 97.23C97.1656 94.2527 97.6393 91.343 98.9926 88.501C100.346 85.5237 102.782 83.0877 106.301 81.193C112.526 77.8097 118.954 75.3737 125.586 73.885C132.352 72.3963 139.119 71.652 145.886 71.652C156.983 71.652 166.253 73.276 173.697 76.524C181.275 79.772 187.027 84.5087 190.952 90.734C194.876 96.824 196.839 104.403 196.839 113.47C196.839 119.154 195.959 124.703 194.2 130.116C192.576 135.529 189.869 140.943 186.08 146.356C182.426 151.769 177.486 157.521 171.261 163.611L138.375 196.091V186.753H188.516C193.523 186.753 197.312 188.039 199.884 190.61C202.59 193.181 203.944 196.903 203.944 201.775C203.944 206.647 202.59 210.436 199.884 213.143C197.312 215.714 193.523 217 188.516 217H117.872Z" fill="white"></path></svg>