<svg xmlns="http://www.w3.org/2000/svg" width="300" height="300" viewBox="0 0 300 300" fill="none"><circle cx="150" cy="150" r="150" fill="#CBC300"></circle><path d="M145.277 219.233C138.375 219.233 131.473 218.556 124.571 217.203C117.669 215.85 111.714 213.955 106.707 211.519C102.376 209.489 99.331 206.985 97.5716 204.008C95.9476 201.031 95.271 197.986 95.5416 194.873C95.8123 191.76 96.895 188.986 98.7896 186.55C100.82 184.114 103.391 182.49 106.504 181.678C109.752 180.731 113.406 181.137 117.466 182.896C122.473 185.061 127.074 186.55 131.27 187.362C135.465 188.174 139.66 188.58 143.856 188.58C148.728 188.58 152.788 188.039 156.036 186.956C159.284 185.873 161.72 184.249 163.344 182.084C164.968 179.783 165.78 176.941 165.78 173.558C165.78 168.821 164.088 165.37 160.705 163.205C157.457 160.904 152.652 159.754 146.292 159.754H135.33C130.187 159.754 126.262 158.468 123.556 155.897C120.849 153.326 119.496 149.672 119.496 144.935C119.496 140.198 120.849 136.544 123.556 133.973C126.262 131.402 130.187 130.116 135.33 130.116H142.638C146.562 130.116 149.878 129.575 152.585 128.492C155.427 127.409 157.592 125.853 159.081 123.823C160.569 121.658 161.314 119.019 161.314 115.906C161.314 111.44 159.69 108.057 156.442 105.756C153.329 103.455 148.66 102.305 142.435 102.305C138.645 102.305 134.788 102.711 130.864 103.523C126.939 104.335 122.744 105.756 118.278 107.786C114.759 109.275 111.511 109.613 108.534 108.801C105.692 107.989 103.323 106.433 101.429 104.132C99.6693 101.696 98.5866 99.057 98.1806 96.215C97.7746 93.2377 98.2483 90.328 99.6016 87.486C100.955 84.644 103.526 82.2757 107.316 80.381C113 77.539 119.157 75.3737 125.789 73.885C132.555 72.3963 139.322 71.652 146.089 71.652C156.78 71.652 165.915 73.2083 173.494 76.321C181.072 79.4337 186.824 83.9673 190.749 89.922C194.809 95.7413 196.839 102.779 196.839 111.034C196.839 116.447 195.824 121.455 193.794 126.056C191.764 130.657 188.786 134.514 184.862 137.627C180.937 140.604 176.336 142.77 171.058 144.123V141.281C180.531 142.77 187.907 146.762 193.185 153.258C198.598 159.619 201.305 167.603 201.305 177.212C201.305 185.873 199.072 193.384 194.606 199.745C190.14 206.106 183.711 210.978 175.321 214.361C166.93 217.609 156.915 219.233 145.277 219.233Z" fill="white"></path></svg>