<svg xmlns="http://www.w3.org/2000/svg" width="300" height="300" viewBox="0 0 300 300" fill="none"><circle cx="150" cy="150" r="150" fill="#D86800"></circle><path d="M171.058 218.827C165.374 218.827 160.908 217.271 157.66 214.158C154.547 211.045 152.991 206.444 152.991 200.354V193.046H112.188C106.233 193.046 101.564 191.693 98.1806 188.986C94.9326 186.279 93.3086 182.152 93.3086 176.603C93.3086 173.355 93.9176 170.242 95.1356 167.265C96.3536 164.152 98.519 160.431 101.632 156.1L151.164 83.832C153.87 79.772 156.915 76.7947 160.299 74.9C163.682 73.0053 167.674 72.058 172.276 72.058C177.418 72.058 181.478 73.6143 184.456 76.727C187.433 79.7043 188.922 84.3057 188.922 90.531V164.829H193.794C198.936 164.829 202.793 166.047 205.365 168.483C208.071 170.919 209.425 174.37 209.425 178.836C209.425 183.437 208.071 186.956 205.365 189.392C202.793 191.828 198.936 193.046 193.794 193.046H188.922V200.354C188.922 206.309 187.365 210.91 184.253 214.158C181.275 217.271 176.877 218.827 171.058 218.827ZM152.991 164.829V116.921H158.675L120.511 173.558V164.829H152.991Z" fill="white"></path></svg>