<svg xmlns="http://www.w3.org/2000/svg" width="300" height="300" viewBox="0 0 300 300" fill="none"><circle cx="150" cy="150" r="150" fill="#DB3737"></circle><path d="M148.525 219.233C142.029 219.233 135.194 218.489 128.022 217C120.849 215.511 114.218 213.211 108.128 210.098C104.474 208.203 101.902 205.767 100.414 202.79C99.0603 199.677 98.5866 196.565 98.9926 193.452C99.534 190.339 100.752 187.565 102.647 185.129C104.677 182.693 107.18 181.137 110.158 180.46C113.27 179.648 116.654 180.189 120.308 182.084C124.774 184.249 129.375 185.873 134.112 186.956C138.984 188.039 143.517 188.58 147.713 188.58C152.314 188.58 156.239 187.903 159.487 186.55C162.735 185.197 165.171 183.234 166.795 180.663C168.554 178.092 169.434 175.047 169.434 171.528C169.434 166.115 167.607 161.852 163.953 158.739C160.299 155.626 155.427 154.07 149.337 154.07C146.63 154.07 143.653 154.476 140.405 155.288C137.292 156.1 134.044 157.656 130.661 159.957C129.172 160.769 127.142 161.716 124.571 162.799C121.999 163.746 119.36 164.22 116.654 164.22C111.782 164.22 108.195 163.07 105.895 160.769C103.594 158.468 102.444 155.22 102.444 151.025V89.719C102.444 84.5763 103.797 80.6517 106.504 77.945C109.346 75.2383 113.27 73.885 118.278 73.885H182.02C187.027 73.885 190.884 75.1707 193.591 77.742C196.297 80.3133 197.651 84.1027 197.651 89.11C197.651 93.982 196.297 97.7037 193.591 100.275C190.884 102.846 187.027 104.132 182.02 104.132H137.563V136.003H129.037C132.285 132.214 136.548 129.372 141.826 127.477C147.104 125.447 152.855 124.432 159.081 124.432C168.148 124.432 176.133 126.394 183.035 130.319C189.937 134.108 195.282 139.454 199.072 146.356C202.996 153.258 204.959 161.31 204.959 170.513C204.959 180.257 202.658 188.851 198.057 196.294C193.591 203.602 187.095 209.286 178.569 213.346C170.178 217.271 160.163 219.233 148.525 219.233Z" fill="white"></path></svg>