<svg xmlns="http://www.w3.org/2000/svg" width="300" height="300" viewBox="0 0 300 300" fill="none"><circle cx="150" cy="150" r="150" fill="#A622D5"></circle><path d="M155.224 219.233C142.638 219.233 131.946 216.391 123.15 210.707C114.488 205.023 107.857 196.835 103.256 186.144C98.6543 175.317 96.3536 162.19 96.3536 146.762C96.3536 134.988 97.8423 124.432 100.82 115.094C103.797 105.756 108.128 97.9067 113.812 91.546C119.496 85.05 126.398 80.1103 134.518 76.727C142.638 73.3437 151.84 71.652 162.126 71.652C167.674 71.652 173.291 72.3287 178.975 73.682C184.659 75.0353 190.072 77.0653 195.215 79.772C198.463 81.396 200.696 83.629 201.914 86.471C203.132 89.1777 203.538 92.0873 203.132 95.2C202.861 98.1773 201.846 100.884 200.087 103.32C198.327 105.621 195.959 107.245 192.982 108.192C190.14 109.139 186.892 108.801 183.238 107.177C179.178 105.282 175.388 103.997 171.87 103.32C168.351 102.643 164.968 102.305 161.72 102.305C154.953 102.305 149.337 103.726 144.871 106.568C140.405 109.275 137.021 113.47 134.721 119.154C132.42 124.703 131.27 131.672 131.27 140.063V150.619H128.225C129.443 144.8 131.676 139.86 134.924 135.8C138.172 131.605 142.164 128.424 146.901 126.259C151.773 124.094 157.186 123.011 163.141 123.011C171.125 123.011 178.23 125.041 184.456 129.101C190.681 133.026 195.621 138.507 199.275 145.544C202.929 152.581 204.756 160.566 204.756 169.498C204.756 179.242 202.658 187.836 198.463 195.279C194.267 202.722 188.448 208.609 181.005 212.94C173.561 217.135 164.968 219.233 155.224 219.233ZM153.194 190.813C156.712 190.813 159.757 190.001 162.329 188.377C165.035 186.753 167.065 184.452 168.419 181.475C169.907 178.498 170.652 175.047 170.652 171.122C170.652 167.062 169.907 163.611 168.419 160.769C167.065 157.792 165.035 155.491 162.329 153.867C159.757 152.108 156.712 151.228 153.194 151.228C149.81 151.228 146.765 152.108 144.059 153.867C141.487 155.491 139.457 157.792 137.969 160.769C136.48 163.611 135.736 167.062 135.736 171.122C135.736 175.047 136.48 178.498 137.969 181.475C139.457 184.452 141.487 186.753 144.059 188.377C146.765 190.001 149.81 190.813 153.194 190.813Z" fill="white"></path></svg>