<svg xmlns="http://www.w3.org/2000/svg" width="125" height="125" viewBox="0 0 125 125" fill="none"><rect x="3" y="3" width="119" height="119" rx="59.5" fill="#004D78" stroke="#00B2FF" stroke-width="6"></rect><rect x="66.5612" y="38.2061" width="20.7701" height="20.7701" rx="4.88708" fill="#79CFFF"></rect><path d="M73.7719 71.8047C75.1827 69.3612 78.7097 69.3612 80.1205 71.8047L86.998 83.717C88.4088 86.1605 86.6453 89.215 83.8238 89.215H70.0687C67.2471 89.215 65.4836 86.1605 66.8944 83.717L73.7719 71.8047Z" fill="#79CFFF"></path><circle cx="45.1802" cy="48.5911" r="10.385" fill="#79CFFF"></circle><path d="M43.4672 72.2373C44.1986 69.9861 47.3836 69.9861 48.115 72.2373L48.8084 74.3714C49.1356 75.3782 50.0738 76.0599 51.1324 76.0599H53.3763C55.7434 76.0599 56.7276 79.0889 54.8126 80.4803L52.9972 81.7992C52.1408 82.4214 51.7824 83.5244 52.1095 84.5312L52.803 86.6652C53.5344 88.9165 50.9578 90.7886 49.0427 89.3972L47.2274 88.0783C46.3709 87.456 45.2113 87.456 44.3548 88.0783L42.5395 89.3972C40.6244 90.7886 38.0478 88.9165 38.7792 86.6652L39.4726 84.5312C39.7998 83.5244 39.4414 82.4214 38.585 81.7992L36.7696 80.4803C34.8546 79.0889 35.8388 76.0599 38.2059 76.0599H40.4498C41.5084 76.0599 42.4466 75.3782 42.7737 74.3714L43.4672 72.2373Z" fill="#79CFFF"></path></svg>