<svg xmlns="http://www.w3.org/2000/svg" width="125" height="125" viewBox="0 0 125 125" fill="none"><rect x="3" y="3" width="119" height="119" rx="59.5" fill="#78005E" stroke="#FF00C7" stroke-width="6"></rect><path fill-rule="evenodd" clip-rule="evenodd" d="M52.7175 31.4106C52.5579 31.4596 52.3988 31.5098 52.2402 31.5612L52.4035 31.7246L52.7175 31.4106ZM51.025 33.1032L50.2156 32.2938C48.6132 32.9355 47.0745 33.7024 45.6115 34.5824L47.5786 36.5495L51.025 33.1032ZM48.9572 37.9281L52.4035 34.4818L55.8502 37.9284L52.4039 41.3748L48.9572 37.9281ZM46.2 37.9281L43.9349 35.663C42.5857 36.5929 41.311 37.6231 40.1216 38.743L42.7534 41.3747L46.2 37.9281ZM44.132 42.7533L47.5786 39.3067L51.0253 42.7534L47.5787 46.2L44.132 42.7533ZM41.3748 42.7533L38.743 40.1215C37.6233 41.3109 36.5931 42.5855 35.6632 43.9346L37.9283 46.1998L41.3748 42.7533ZM39.3069 47.5784L42.7534 44.1319L46.2001 47.5786L42.7536 51.025L39.3069 47.5784ZM36.5498 47.5784L34.5826 45.6112C33.7026 47.0742 32.9358 48.6129 32.294 50.2153L33.1034 51.0247L36.5498 47.5784ZM34.482 52.4033L37.9284 48.9569L41.375 52.4036L37.9287 55.8499L34.482 52.4033ZM31.7249 52.4033L31.5614 52.2398C31.51 52.3985 31.4598 52.5576 31.4108 52.7173L31.7249 52.4033ZM30.5225 56.3628L33.1034 53.7819L36.5501 57.2285L33.1036 60.6751L30.2863 57.8579C30.3536 57.3557 30.4324 56.8573 30.5225 56.3628ZM53.7821 33.1032L56.363 30.5223C56.8575 30.4322 57.356 30.3534 57.8582 30.2861L60.6754 33.1033L57.2288 36.5498L53.7821 33.1032ZM63.7411 30.0376C63.2201 30.0125 62.6959 29.9998 62.1688 29.9998C61.5679 29.9998 60.9709 30.0163 60.3781 30.0488L62.054 31.7247L63.7411 30.0376ZM58.6074 37.9284L62.054 34.4819L65.5006 37.9285L62.0541 41.3751L58.6074 37.9284ZM53.7825 42.7534L57.2288 39.307L60.6755 42.7537L57.2291 46.2L53.7825 42.7534ZM48.9573 47.5786L52.4039 44.132L55.8505 47.5786L52.4039 51.0252L48.9573 47.5786ZM44.1322 52.4036L47.5787 48.9572L51.0253 52.4038L47.5789 55.8503L44.1322 52.4036ZM39.3073 57.2285L42.7536 53.7822L46.2003 57.2289L42.754 60.6752L39.3073 57.2285ZM34.4822 62.0537L37.9287 58.6071L41.3754 62.0538L37.9288 65.5004L34.4822 62.0537ZM31.725 62.0537L30.049 60.3777C30.0165 60.9705 30 61.5676 30 62.1686C30 62.6958 30.0127 63.22 30.0377 63.7409L31.725 62.0537ZM30.2598 66.2761L33.1036 63.4323L36.5502 66.8789L33.1038 70.3254L30.4728 67.6944C30.3915 67.225 30.3204 66.7522 30.2598 66.2761ZM31.3116 71.2904L31.7252 71.704L31.5056 71.9235C31.4389 71.7134 31.3742 71.5024 31.3116 71.2904ZM36.55 76.5289L33.1038 73.0826L32.2288 73.9576C32.8628 75.5666 33.6228 77.1122 34.4967 78.5822L36.55 76.5289ZM34.4823 71.704L37.9286 75.1503L41.3751 71.7038L37.9288 68.2575L34.4823 71.704ZM35.5698 80.2663L37.9286 77.9075L41.3751 81.3539L38.6319 84.097C37.5176 82.9015 36.4933 81.621 35.5698 80.2663ZM39.3072 76.5289L42.7537 79.9753L46.2001 76.5288L42.7537 73.0824L39.3072 76.5289ZM40.0036 85.4825L42.7537 82.7325L46.2002 86.179L43.7991 88.5801C42.4556 87.6439 41.1868 86.6078 40.0036 85.4825ZM44.1322 81.3539L47.5788 84.8004L51.0252 81.354L47.5787 77.9074L44.1322 81.3539ZM45.4683 89.6681L47.5788 87.5576L51.0252 91.004L50.0519 91.9773C48.4561 91.328 46.9242 90.5542 45.4683 89.6681ZM48.9574 86.179L52.4038 89.6254L55.8502 86.179L52.4038 82.7326L48.9574 86.179ZM52.0671 92.7193L52.4038 92.3826L53.0469 93.0257C52.7181 92.9287 52.3914 92.8265 52.0671 92.7193ZM53.7824 91.004L56.6429 93.8646C56.979 93.9227 57.3168 93.9757 57.6563 94.0234L60.6755 91.0042L57.2288 87.5576L53.7824 91.004ZM63.4326 33.1033L66.2763 30.2596C66.7525 30.3203 67.2255 30.3914 67.6949 30.4727L70.3257 33.1034L66.8792 36.5499L63.4326 33.1033ZM71.9237 31.5055C71.7137 31.4387 71.5028 31.3741 71.291 31.3116L71.7043 31.7249L71.9237 31.5055ZM68.2578 37.9285L71.7043 34.482L75.1506 37.9283L71.7041 41.3748L68.2578 37.9285ZM63.4327 42.7537L66.8792 39.3071L70.3255 42.7534L66.8789 46.2L63.4327 42.7537ZM58.6077 47.5786L62.0541 44.1323L65.5004 47.5786L62.054 51.0249L58.6077 47.5786ZM53.7825 52.4038L57.2291 48.9572L60.6754 52.4035L57.2288 55.8501L53.7825 52.4038ZM48.9575 57.2289L52.4039 53.7824L55.8502 57.2287L52.4037 60.6752L48.9575 57.2289ZM44.1326 62.0538L47.5789 58.6075L51.0252 62.0538L47.5788 65.5001L44.1326 62.0538ZM39.3074 66.8789L42.7537 70.3252L46.2003 66.8787L42.754 63.4324L39.3074 66.8789ZM44.1323 71.7038L47.5787 75.1502L51.0253 71.7037L47.5788 68.2572L44.1323 71.7038ZM48.9573 76.5288L52.4038 79.9754L55.8504 76.5288L52.4039 73.0823L48.9573 76.5288ZM53.7824 81.354L57.2288 84.8004L60.6754 81.3538L57.229 77.9074L53.7824 81.354ZM58.6074 86.179L62.0541 89.6256L65.5006 86.179L62.054 82.7324L58.6074 86.179ZM60.1611 94.2757L62.0541 92.3828L63.9596 94.2884C63.3668 94.3209 62.7697 94.3374 62.1688 94.3374C61.4945 94.3374 60.8251 94.3166 60.1611 94.2757ZM63.4327 91.0042L66.4795 94.051C66.794 94.0089 67.1071 93.9622 67.4187 93.9111L70.3257 91.0041L66.8792 87.5576L63.4327 91.0042ZM73.0829 33.1034L73.9578 32.2286C75.5668 32.8626 77.1124 33.6227 78.5824 34.4965L76.5292 36.5497L73.0829 33.1034ZM73.0827 42.7534L76.5292 39.3069L79.9756 42.7533L76.5291 46.1998L73.0827 42.7534ZM68.2575 47.5786L71.7041 44.132L75.1505 47.5784L71.704 51.025L68.2575 47.5786ZM63.4326 52.4035L66.8789 48.9571L70.3254 52.4036L66.879 55.8499L63.4326 52.4035ZM58.6074 57.2287L62.054 53.7821L65.5004 57.2285L62.0538 60.6751L58.6074 57.2287ZM53.7823 62.0538L57.2288 58.6073L60.6752 62.0537L57.2288 65.5002L53.7823 62.0538ZM53.7825 71.7037L57.229 75.1502L60.6753 71.7039L57.2288 68.2574L53.7825 71.7037ZM58.6076 76.5288L62.054 79.9752L65.5003 76.5289L62.0539 73.0825L58.6076 76.5288ZM63.4326 81.3538L66.8792 84.8005L70.3255 81.3541L66.8789 77.9075L63.4326 81.3538ZM68.2578 86.1791L71.7043 89.6255L75.1506 86.1792L71.7041 82.7327L68.2578 86.1791ZM70.9678 93.1192L71.7043 92.3827L72.0975 92.7759C71.7239 92.897 71.3473 93.0115 70.9678 93.1192ZM73.0829 91.0041L74.1221 92.0433C75.7244 91.4016 77.2632 90.6347 78.7261 89.7547L76.5292 87.5578L73.0829 91.0041ZM48.9574 66.8787L52.4039 70.3251L55.8502 66.8788L52.4037 63.4323L48.9574 66.8787ZM77.9078 37.9283L80.2665 35.5696C81.6212 36.4931 82.9017 37.5174 84.0972 38.6318L81.3542 41.3747L77.9078 37.9283ZM77.9077 47.5784L81.3542 44.1319L84.8008 47.5785L81.3543 51.025L77.9077 47.5784ZM73.0826 52.4036L76.5291 48.957L79.9757 52.4036L76.5291 55.8501L73.0826 52.4036ZM68.2576 57.2285L71.704 53.7822L75.1505 57.2287L71.7042 60.6751L68.2576 57.2285ZM63.4324 62.0537L66.879 58.6071L70.3256 62.0536L66.8789 65.5003L63.4324 62.0537ZM63.4325 71.7039L66.8789 75.1503L70.3253 71.7038L66.879 68.2575L63.4325 71.7039ZM68.2575 76.5289L71.7041 79.9756L75.1506 76.5291L71.7039 73.0824L68.2575 76.5289ZM73.0827 81.3541L76.5292 84.8006L79.9756 81.3541L76.5292 77.9077L73.0827 81.3541ZM77.9078 86.1792L80.4027 88.6741C81.7518 87.7443 83.0265 86.7141 84.2158 85.5943L81.3542 82.7327L77.9078 86.1792ZM58.6074 66.8788L62.0539 70.3253L65.5004 66.8789L62.0538 63.4323L58.6074 66.8788ZM82.7328 42.7533L85.4827 40.0034C86.608 41.1866 87.6441 42.4554 88.5803 43.7989L86.1793 46.1999L82.7328 42.7533ZM68.2575 66.8789L71.7039 70.3253L75.1506 66.8786L71.7042 63.4322L68.2575 66.8789ZM73.0825 71.7039L76.5292 75.1505L79.9758 71.7039L76.5292 68.2572L73.0825 71.7039ZM77.9078 76.5291L81.3542 79.9756L84.8009 76.5289L81.3544 73.0825L77.9078 76.5291ZM82.7328 81.3541L85.5944 84.2157C86.7142 83.0263 87.7445 81.7516 88.6744 80.4025L86.1795 77.9075L82.7328 81.3541ZM73.0828 62.0536L76.5292 65.5L79.9755 62.0537L76.5291 58.6073L73.0828 62.0536ZM77.9077 57.2287L81.3541 60.6751L84.8007 57.2285L81.3543 53.7821L77.9077 57.2287ZM82.7329 52.4035L86.1793 55.8499L89.6257 52.4035L86.1793 48.9571L82.7329 52.4035ZM87.5579 47.5785L91.0043 51.0249L91.9775 50.0517C91.3282 48.456 90.5544 46.9241 89.6683 45.4681L87.5579 47.5785ZM77.9077 66.8786L81.3544 70.3253L84.8007 66.8789L81.3541 63.4323L77.9077 66.8786ZM82.733 71.7039L86.1794 75.1503L89.6258 71.704L86.1793 68.2575L82.733 71.7039ZM87.558 76.5289L89.755 78.7259C90.635 77.2629 91.4018 75.7241 92.0436 74.1218L91.0044 73.0826L87.558 76.5289ZM82.7327 62.0537L86.1793 65.5004L89.6259 62.0538L86.1793 58.6071L82.7327 62.0537ZM87.5578 57.2285L91.0045 60.6752L94.0236 57.6561C93.9759 57.3165 93.9229 56.9786 93.8647 56.6424L91.0043 53.7821L87.5578 57.2285ZM92.3829 52.4035L93.0258 53.0463C92.9288 52.7176 92.8266 52.3911 92.7195 52.0669L92.3829 52.4035ZM87.5579 66.8789L91.0044 70.3254L93.9113 67.4185C93.9624 67.1069 94.0091 66.7937 94.0512 66.4791L91.0045 63.4324L87.5579 66.8789ZM92.383 71.704L92.7762 72.0972C92.8973 71.7236 93.0117 71.347 93.1194 70.9676L92.383 71.704ZM92.3831 62.0538L94.2886 63.9592C94.3211 63.3665 94.3375 62.7695 94.3375 62.1686C94.3375 61.4943 94.3168 60.8249 94.2759 60.161L92.3831 62.0538Z" fill="#FF7DE2"></path><circle cx="62.4421" cy="62.4421" r="31.5" stroke="#FF7DE2" stroke-width="3"></circle><circle cx="62.5413" cy="62.5414" r="28.5" stroke="#78005E" stroke-width="3"></circle><rect x="60.4338" y="27" width="4" height="4" rx="2" fill="#FF7DE2"></rect><rect x="60.4338" y="22" width="4" height="4" rx="2" fill="#FF7DE2"></rect><rect x="60.4338" y="17.0001" width="4" height="4" rx="2" fill="#FF7DE2"></rect><rect x="60.4338" y="12.0001" width="4" height="4" rx="2" fill="#FF7DE2"></rect><rect x="60.4338" y="7" width="4" height="4" rx="2" fill="#FF7DE2"></rect><path d="M93.1432 29.4933L92.4887 27.7245C91.895 26.1201 89.6257 26.1201 89.032 27.7245L88.3776 29.4933L86.6088 30.1478C85.0044 30.7415 85.0044 33.0107 86.6088 33.6044L88.3776 34.2589L89.032 36.0277C89.6257 37.6321 91.895 37.6321 92.4887 36.0277L93.1432 34.2589L94.912 33.6044C96.5164 33.0107 96.5164 30.7415 94.912 30.1478L93.1432 29.4933Z" fill="#FF7DE2" stroke="#78005E" stroke-width="3"></path><path d="M28.788 59.212L27.7283 56.3484C27.1346 54.744 24.8654 54.744 24.2717 56.3484L23.212 59.212L20.3484 60.2717C18.744 60.8654 18.744 63.1346 20.3484 63.7283L23.212 64.788L24.2717 67.6516C24.8654 69.256 27.1346 69.256 27.7283 67.6516L28.788 64.788L31.6516 63.7283C33.256 63.1346 33.256 60.8654 31.6516 60.2717L28.788 59.212Z" fill="#FF7DE2" stroke="#78005E" stroke-width="3"></path><path d="M89.9632 84.0369L88.2283 79.3485C87.6346 77.7441 85.3654 77.7441 84.7717 79.3485L83.0368 84.0369L78.3484 85.7718C76.744 86.3655 76.744 88.6348 78.3484 89.2284L83.0368 90.9633L84.7717 95.6517C85.3654 97.2561 87.6346 97.2561 88.2283 95.6517L89.9632 90.9633L94.6516 89.2284C96.256 88.6348 96.256 86.3655 94.6516 85.7718L89.9632 84.0369Z" fill="#FF7DE2" stroke="#78005E" stroke-width="3"></path><path d="M67.3811 62.2657L67.381 62.2656C66.6714 61.6592 65.7325 61.3933 64.8085 61.5391L64.8083 61.5391L43.3567 64.9262C41.8046 65.1713 40.6613 66.5092 40.6613 68.0806V74.8548V84.0806H38.7742C34.336 84.0807 30.5 87.4177 30.5 91.7903C30.5 96.163 34.336 99.5 38.7742 99.5C43.2124 99.5 47.0484 96.163 47.0484 91.7903V87.2741V77.5837L62.1129 75.205V81.258H60.2259C55.7877 81.258 51.9517 84.5951 51.9517 88.9677C51.9517 93.3404 55.7877 96.6774 60.2259 96.6774C64.6641 96.6774 68.5 93.3403 68.5 88.9677V84.4516V71.4677V64.6935C68.5 63.7594 68.091 62.8723 67.3811 62.2657Z" fill="#78005E" stroke="#FF7DE2" stroke-width="3"></path></svg>